<svg xmlns="http://www.w3.org/2000/svg" viewBox="0 0 512 512" width="512" height="512" preserveAspectRatio="none"> <style type="text/css"> path { fill: none; stroke: rgba(0,0,0,0.271); stroke-width: 1.01px; stroke-linecap: round; stroke-linejoin: round; } </style> <path vector-effect="non-scaling-stroke" d="M424,331.8c0,12.5-6.7,24.1-17.5,30.3l-132,76.2c-10.8,6.3-24.2,6.3-35,0l-132-76.2 C96.7,355.8,90,344.3,90,331.8V179.2c0-12.5,6.7-24.1,17.5-30.3l132-76.2c10.8-6.3,24.2-6.3,35,0l132,76.2 c10.8,6.3,17.5,17.8,17.5,30.3V331.8z M238.5,73l-256,147.6 M273.5,439l252.1-145.4 M256,634.7V378.3c0-12.5,6.7-24.1,17.5-30.3 l252.1-145.4 M256-122.7v256.4c0,12.5-6.7,24.1-17.5,30.3l-256,147.6"/></svg>